<svg width="271" height="111" viewBox="0 0 271 111" fill="none" xmlns="http://www.w3.org/2000/svg">
<path d="M55.0692 65.9522L80.7364 110.465L67.5452 110.622L43.1495 68.262H42.5138L12.3171 68.6535L12.9131 110.309L1.4701 110.465L0.79465 57.5742L42.3946 57.0261C56.5393 56.8303 65.2805 46.26 65.1216 34.0453C64.9626 21.6741 55.9434 11.4561 41.7986 11.6518L0.158928 12.1608L0 0.885735L41.5999 0.337644C62.5787 0.0635981 76.7632 15.2144 77.0016 33.8496C77.24 48.0217 68.4591 60.8236 55.0692 65.9522ZM82.0476 0.924887L129.727 12.1608V99.8948L85.6633 110.465H161.672V99.8948H146.613V12.1608H161.672V0.924887H82.0476ZM114.826 53.9333C114.508 55.9691 113.991 57.9657 113.316 59.884L115.503 65.3865C116.536 63.4682 120.469 55.7733 121.065 53.6592L114.826 53.9333ZM234.938 0.37679L193.338 0.924887L193.458 12.1608L235.057 11.6127C249.202 11.4169 258.221 21.635 258.38 34.0062C258.539 46.2208 249.798 56.8303 235.653 56.9869L194.093 57.5742L194.65 99.3467H187.617V110.622H222.899V99.3467H206.092L205.695 68.6926L214.476 68.5752C221.072 68.4969 227.667 68.3794 234.263 68.3011C235.018 68.3011 235.773 68.262 236.528 68.2228C246.063 67.6748 255.003 64.1904 261.559 56.9869C267.32 50.6447 270.499 42.3842 270.38 33.8496C270.062 15.2536 255.917 0.102744 234.938 0.37679Z" fill="#224C4F"/>
</svg>
