<svg xmlns="http://www.w3.org/2000/svg" width="233" height="95" fill="none"><path fill="#fff" d="m47.455 56.522 22.119 38.343L58.207 95 37.183 58.512h-.548l-26.022.337.514 35.881-9.861.135-.582-45.56 35.848-.471c12.19-.169 19.722-9.274 19.585-19.796C55.98 18.382 48.208 9.58 36.02 9.75l-35.883.438L0 .475 35.848.003C53.927-.233 66.15 12.818 66.355 28.87c.206 12.207-7.361 23.235-18.9 27.652ZM70.704.51l41.087 9.678V85.76L73.82 94.865h65.499V85.76h-12.977V10.187h12.977V.51H70.704Zm28.246 45.66a28.884 28.884 0 0 1-1.301 5.126l1.885 4.74c.89-1.652 4.279-8.28 4.793-10.101l-5.377.236ZM202.456.038l-35.848.472.102 9.678 35.849-.472c12.189-.168 19.961 8.633 20.098 19.29.137 10.521-7.396 19.66-19.585 19.795l-35.814.506.479 35.982h-6.06V95h30.404v-9.712h-14.483l-.342-26.405 7.567-.101c5.683-.068 11.367-.169 17.051-.236.65 0 1.301-.034 1.952-.068 8.217-.472 15.921-3.473 21.57-9.678 4.965-5.463 7.704-12.579 7.601-19.93C232.723 12.85 220.534-.2 202.456.037Z"/></svg>