<svg width="18" height="18" viewBox="0 0 18 18" fill="none" xmlns="http://www.w3.org/2000/svg">
<path d="M14.8348 6.58578L9.20981 12.2108C9.15756 12.2631 9.09553 12.3046 9.02724 12.3329C8.95895 12.3612 8.88576 12.3758 8.81184 12.3758C8.73792 12.3758 8.66472 12.3612 8.59643 12.3329C8.52815 12.3046 8.46611 12.2631 8.41387 12.2108L2.78887 6.58578C2.68332 6.48023 2.62402 6.33708 2.62402 6.18781C2.62402 6.03855 2.68332 5.89539 2.78887 5.78984C2.89442 5.6843 3.03757 5.625 3.18684 5.625C3.3361 5.625 3.47926 5.6843 3.5848 5.78984L8.81184 11.0176L14.0389 5.78984C14.0911 5.73758 14.1532 5.69613 14.2215 5.66784C14.2897 5.63956 14.3629 5.625 14.4368 5.625C14.5107 5.625 14.5839 5.63956 14.6522 5.66784C14.7205 5.69613 14.7825 5.73758 14.8348 5.78984C14.8871 5.84211 14.9285 5.90415 14.9568 5.97243C14.9851 6.04072 14.9997 6.1139 14.9997 6.18781C14.9997 6.26172 14.9851 6.33491 14.9568 6.40319C14.9285 6.47148 14.8871 6.53352 14.8348 6.58578Z" fill="#222222"/>
</svg>
