<svg width="24" height="24" viewBox="0 0 24 24" fill="none" xmlns="http://www.w3.org/2000/svg">
<path d="M8.78104 4.21993L16.281 11.7199C16.3508 11.7896 16.4061 11.8723 16.4438 11.9634C16.4816 12.0544 16.501 12.152 16.501 12.2506C16.501 12.3491 16.4816 12.4467 16.4438 12.5378C16.4061 12.6288 16.3508 12.7115 16.281 12.7812L8.78104 20.2812C8.64031 20.4219 8.44944 20.501 8.25042 20.501C8.05139 20.501 7.86052 20.4219 7.71979 20.2812C7.57906 20.1405 7.5 19.9496 7.5 19.7506C7.5 19.5515 7.57906 19.3607 7.71979 19.2199L14.6901 12.2506L7.71979 5.28118C7.65011 5.2115 7.59483 5.12878 7.55712 5.03773C7.51941 4.94669 7.5 4.8491 7.5 4.75056C7.5 4.65201 7.51941 4.55443 7.55712 4.46339C7.59483 4.37234 7.65011 4.28962 7.71979 4.21993C7.78947 4.15025 7.8722 4.09498 7.96324 4.05726C8.05429 4.01955 8.15187 4.00014 8.25042 4.00014C8.34896 4.00014 8.44654 4.01955 8.53759 4.05726C8.62863 4.09498 8.71136 4.15025 8.78104 4.21993Z" fill="#222222"/>
</svg>
