<svg width="16" height="16" viewBox="0 0 16 16" fill="none" xmlns="http://www.w3.org/2000/svg">
<path d="M10.1465 13.5208L5.14646 8.52078C5.09997 8.47434 5.06309 8.41919 5.03793 8.3585C5.01277 8.2978 4.99982 8.23273 4.99982 8.16703C4.99982 8.10132 5.01277 8.03625 5.03793 7.97556C5.06309 7.91486 5.09997 7.85971 5.14646 7.81328L10.1465 2.81328C10.2403 2.71946 10.3675 2.66675 10.5002 2.66675C10.6329 2.66675 10.7601 2.71946 10.854 2.81328C10.9478 2.9071 11.0005 3.03434 11.0005 3.16703C11.0005 3.29971 10.9478 3.42696 10.854 3.52078L6.20709 8.16703L10.854 12.8133C10.9004 12.8597 10.9373 12.9149 10.9624 12.9756C10.9875 13.0363 11.0005 13.1013 11.0005 13.167C11.0005 13.2327 10.9875 13.2978 10.9624 13.3585C10.9373 13.4192 10.9004 13.4743 10.854 13.5208C10.8075 13.5672 10.7524 13.6041 10.6917 13.6292C10.631 13.6544 10.5659 13.6673 10.5002 13.6673C10.4345 13.6673 10.3695 13.6544 10.3088 13.6292C10.2481 13.6041 10.1929 13.5672 10.1465 13.5208Z" fill="#224C4F"/>
</svg>
