<svg width="6" height="12" viewBox="0 0 6 12" fill="none" xmlns="http://www.w3.org/2000/svg">
<path d="M5.14695 11.5208L0.146948 6.52078C0.10046 6.47434 0.0635805 6.41919 0.0384184 6.3585C0.0132563 6.2978 0.000305767 6.23273 0.00030577 6.16703C0.000305773 6.10132 0.0132563 6.03625 0.0384184 5.97556C0.0635806 5.91486 0.10046 5.85971 0.146948 5.81328L5.14695 0.813276C5.24077 0.719456 5.36802 0.666748 5.5007 0.666748C5.63338 0.666748 5.76063 0.719456 5.85445 0.813276C5.94827 0.907096 6.00098 1.03434 6.00098 1.16703C6.00098 1.29971 5.94827 1.42696 5.85445 1.52078L1.20757 6.16703L5.85445 10.8133C5.9009 10.8597 5.93775 10.9149 5.96289 10.9756C5.98804 11.0363 6.00098 11.1013 6.00098 11.167C6.00098 11.2327 5.98804 11.2978 5.96289 11.3585C5.93775 11.4192 5.9009 11.4743 5.85445 11.5208C5.80799 11.5672 5.75284 11.6041 5.69215 11.6292C5.63145 11.6544 5.5664 11.6673 5.5007 11.6673C5.435 11.6673 5.36995 11.6544 5.30925 11.6292C5.24855 11.6041 5.1934 11.5672 5.14695 11.5208Z" fill="#224C4F"/>
</svg>
