<svg width="48" height="49" viewBox="0 0 48 49" fill="none" xmlns="http://www.w3.org/2000/svg">
<rect y="0.5" width="48" height="48" rx="24" fill="white"/>
<path fill-rule="evenodd" clip-rule="evenodd" d="M20.2928 17.7928C20.4803 17.6053 20.7346 17.5 20.9998 17.5C21.265 17.5 21.5193 17.6053 21.7068 17.7928L27.7068 23.7928C27.8943 23.9803 27.9996 24.2346 27.9996 24.4998C27.9996 24.765 27.8943 25.0193 27.7068 25.2068L21.7068 31.2068C21.5182 31.3889 21.2656 31.4897 21.0034 31.4875C20.7412 31.4852 20.4904 31.38 20.305 31.1946C20.1196 31.0092 20.0144 30.7584 20.0121 30.4962C20.0098 30.234 20.1106 29.9814 20.2928 29.7928L25.5858 24.4998L20.2928 19.2068C20.1053 19.0193 20 18.765 20 18.4998C20 18.2346 20.1053 17.9803 20.2928 17.7928Z" fill="#15181A"/>
</svg>
