<svg width="48" height="49" viewBox="0 0 48 49" fill="none" xmlns="http://www.w3.org/2000/svg">
<rect y="0.5" width="48" height="48" rx="24" fill="white"/>
<path fill-rule="evenodd" clip-rule="evenodd" d="M27.7068 17.7928C27.8943 17.9803 27.9996 18.2346 27.9996 18.4998C27.9996 18.765 27.8943 19.0193 27.7068 19.2068L22.4138 24.4998L27.7068 29.7928C27.8889 29.9814 27.9897 30.234 27.9875 30.4962C27.9852 30.7584 27.88 31.0092 27.6946 31.1946C27.5092 31.38 27.2584 31.4852 26.9962 31.4875C26.734 31.4897 26.4814 31.3889 26.2928 31.2068L20.2928 25.2068C20.1053 25.0193 20 24.765 20 24.4998C20 24.2346 20.1053 23.9803 20.2928 23.7928L26.2928 17.7928C26.4803 17.6053 26.7346 17.5 26.9998 17.5C27.265 17.5 27.5193 17.6053 27.7068 17.7928Z" fill="#15181A"/>
</svg>
