<svg width="25" height="24" viewBox="0 0 25 24" fill="none" xmlns="http://www.w3.org/2000/svg">
<g clip-path="url(#clip0_247_12727)">
<path d="M7.50364 6.00234C5.73125 7.47071 4.67773 9.69622 4.67773 11.9991C4.67773 16.2388 8.22356 19.7844 12.463 19.7844C16.7018 19.7844 20.2483 16.2362 20.2483 11.9991C20.2483 7.76044 16.7014 4.21387 12.463 4.21387C10.8353 4.21387 8.64887 4.74857 7.50364 6.00234ZM11.1122 7.25546L11.3762 8.52174C11.1664 8.58745 10.9651 8.67232 10.7734 8.77313L10.0639 7.68972C9.65524 7.06579 9.08989 6.54248 8.43802 6.17523C9.24965 5.61255 10.1838 5.21479 11.1919 5.03136C10.9898 5.75296 10.9597 6.52406 11.1122 7.25546ZM13.7359 5.03112C14.7261 5.21053 15.6614 5.59891 16.4892 6.17448C15.8368 6.54173 15.2711 7.06532 14.8622 7.68963L14.154 8.77088C13.9606 8.66928 13.7586 8.58562 13.55 8.52071L13.8138 7.25541C13.9685 6.5137 13.9407 5.75423 13.7359 5.03112ZM17.4684 6.99371C17.588 7.11331 17.7026 7.23652 17.8125 7.36283C17.4996 8.03649 17.0094 8.60446 16.3873 9.01187L15.3053 9.72054C15.2223 9.61748 15.134 9.51794 15.0391 9.42303C14.9442 9.32817 14.8446 9.23978 14.7416 9.15683L15.4502 8.07478C15.8523 7.46082 16.433 6.96137 17.0999 6.65017C17.226 6.75998 17.3491 6.87434 17.4684 6.99371ZM19.4314 10.7282C18.7096 10.5259 17.9382 10.4958 17.2067 10.6483L15.9414 10.9121C15.8765 10.7035 15.7928 10.5015 15.6912 10.3082L16.7725 9.6C17.4055 9.18542 17.9223 8.62963 18.2887 7.97457C18.8641 8.80247 19.2522 9.73783 19.4314 10.7282ZM18.287 16.0241C17.9197 15.3723 17.3965 14.807 16.7725 14.3983L15.6891 13.6887C15.7899 13.497 15.8747 13.2957 15.9405 13.086L17.2067 13.35C17.5168 13.4146 17.8339 13.4466 18.1514 13.4466C18.5829 13.4466 19.0151 13.3874 19.4307 13.271C19.2472 14.2788 18.8495 15.2127 18.287 16.0241ZM17.0996 17.3485C16.8961 17.2538 16.7002 17.1417 16.515 17.0137C16.1411 16.7553 15.7415 17.3337 16.1154 17.592C16.2356 17.6751 16.3599 17.7522 16.4872 17.8237C15.6757 18.3861 14.7418 18.7836 13.7341 18.967C13.9362 18.2453 13.9663 17.4742 13.8138 16.7428L13.5498 15.4765C13.7596 15.4108 13.9609 15.326 14.1526 15.2251L14.6363 15.9636C14.8755 16.3288 15.473 15.9581 15.2243 15.5784L14.7404 14.8395C14.9479 14.6728 15.1367 14.484 15.3035 14.2765L16.3873 14.9863C17.0013 15.3884 17.5007 15.9691 17.812 16.6361C17.5916 16.89 17.3535 17.1281 17.0996 17.3485ZM19.5453 11.9991C19.5453 12.168 19.539 12.3355 19.5273 12.5014C18.8348 12.7539 18.0698 12.8118 17.3502 12.6617L16.0839 12.3977C16.0982 12.2667 16.1061 12.1338 16.1061 11.9991C16.1061 11.865 16.0982 11.7321 16.084 11.6005L17.3502 11.3365C18.0699 11.1865 18.835 11.2443 19.5276 11.497C19.5392 11.6633 19.5453 11.8307 19.5453 11.9991ZM14.0694 9.53621C14.0702 9.53678 14.0709 9.53743 14.0718 9.53795C14.0727 9.53856 14.0737 9.53893 14.0747 9.53954C14.2411 9.64907 14.3978 9.77603 14.542 9.92019C15.0972 10.4755 15.4031 11.2138 15.4031 11.9991C15.4031 13.6203 14.0842 14.9392 12.4631 14.9392C12.26 14.9392 12.0603 14.9183 11.8659 14.8784C11.8641 14.878 11.8622 14.8774 11.8604 14.877C11.8593 14.8767 11.8583 14.8767 11.8573 14.8765C11.4999 14.802 11.1613 14.6617 10.856 14.4616C10.8554 14.4612 10.8549 14.4607 10.8543 14.4603C10.8531 14.4596 10.852 14.4591 10.8508 14.4583C10.6846 14.3489 10.5281 14.2221 10.3841 14.078C10.2407 13.9346 10.1142 13.7788 10.0051 13.6133C10.004 13.6115 10.0031 13.6096 10.0019 13.6079C10.0013 13.6069 10.0005 13.6061 9.99989 13.6051C9.68982 13.1316 9.52298 12.5783 9.52298 11.9991C9.52298 10.378 10.8419 9.05911 12.463 9.05911C13.0424 9.05907 13.5958 9.226 14.0694 9.53621ZM11.1921 18.9675C10.2011 18.7882 9.26517 18.3997 8.43685 17.8238C9.08918 17.4565 9.65496 16.9329 10.0639 16.3086L10.772 15.2274C10.9654 15.329 11.1674 15.4126 11.376 15.4775L11.1122 16.7428C10.9597 17.4744 10.9898 18.2457 11.1921 18.9675ZM7.45762 17.0045C7.33825 16.8852 7.22385 16.7621 7.11414 16.636C7.42538 15.9691 7.92483 15.3884 8.53874 14.9863L9.62079 14.2776C9.70374 14.3807 9.79209 14.4803 9.88699 14.5752C9.98185 14.67 10.0814 14.7584 10.1845 14.8414L9.47583 15.9234C9.07376 16.5373 8.49314 17.0368 7.82613 17.348C7.70001 17.2383 7.57699 17.1239 7.45762 17.0045ZM5.4948 13.2708C5.91065 13.3873 6.3429 13.4465 6.77468 13.4465C7.09216 13.4465 7.40939 13.4146 7.71937 13.3499L8.98467 13.0861C9.04958 13.2947 9.13324 13.4967 9.23484 13.6901L8.15359 14.3982C7.52928 14.8071 7.00573 15.3729 6.63844 16.0253C6.06259 15.1972 5.67416 14.2615 5.4948 13.2708ZM6.6391 7.97411C7.00634 8.62597 7.52965 9.19132 8.15359 9.59995L9.237 10.3095C9.13619 10.5012 9.05136 10.7025 8.98561 10.9123L7.71932 10.6483C6.98802 10.4959 6.21683 10.5259 5.49518 10.728C5.67866 9.71998 6.07642 8.78579 6.6391 7.97411ZM5.38073 11.9991C5.38073 11.8302 5.38706 11.6628 5.39878 11.4969C6.09137 11.2444 6.85637 11.1865 7.57586 11.3366L8.8422 11.6006C8.82786 11.7316 8.81998 11.8645 8.81998 11.9992C8.81998 12.1334 8.8279 12.2662 8.8421 12.3978L7.57586 12.6618C6.85614 12.8119 6.09109 12.754 5.39849 12.5014C5.38687 12.3349 5.38073 12.1675 5.38073 11.9991ZM9.47583 8.07487L10.1857 9.15866C9.97815 9.32536 9.78932 9.51419 9.62257 9.72176L8.53878 9.01192C7.92483 8.6098 7.42533 8.02913 7.11409 7.36212C7.33431 7.10839 7.5723 6.87045 7.82599 6.65022C8.49299 6.96142 9.07367 7.46087 9.47583 8.07487ZM11.9608 19.0637C11.7082 18.3711 11.6503 17.606 11.8004 16.8863L12.0644 15.62C12.1959 15.6343 12.3288 15.6422 12.463 15.6422C12.5977 15.6422 12.7306 15.6342 12.8616 15.62L13.1256 16.8863C13.2756 17.6058 13.2178 18.3708 12.9653 19.0634C12.6309 19.0869 12.2953 19.087 11.9608 19.0637ZM12.9661 4.93467C13.2222 5.63327 13.2777 6.38275 13.1257 7.112L12.8617 8.37824C12.7301 8.36399 12.5972 8.35611 12.4631 8.35611C12.3283 8.35611 12.1954 8.36404 12.0645 8.37833L11.8005 7.112C11.6504 6.39241 11.7082 5.62745 11.9607 4.93491C12.1267 4.92324 12.2941 4.91686 12.4631 4.91686C12.6317 4.91686 12.7994 4.923 12.9661 4.93467Z" fill="#201001"/>
<path d="M23.5367 10.5964C23.5298 10.5933 23.523 10.5905 23.516 10.5879C22.9945 10.391 22.4574 10.4715 22.0508 10.7688C21.8342 9.05931 21.1673 7.45296 20.1081 6.08961C20.4142 6.04148 20.7084 5.90008 20.9438 5.66467C21.5355 5.07294 21.5355 4.11011 20.9438 3.51838C20.352 2.92664 19.3892 2.92664 18.7975 3.51838C18.5621 3.75379 18.4206 4.04797 18.3725 4.3541C17.0088 3.29454 15.402 2.62758 13.692 2.41115C13.7675 2.31199 13.8283 2.2055 13.8743 2.09176C14.1743 1.29709 13.8304 0.466243 13.0565 0.116244C13.0497 0.113151 13.0428 0.110292 13.0358 0.107667C12.2414 -0.192231 11.4107 0.151581 11.0605 0.924972C11.0574 0.931814 11.0546 0.938704 11.0519 0.945687C10.8547 1.46764 10.9353 2.00524 11.2332 2.412C10.6668 2.48436 10.1085 2.6064 9.56347 2.77817C9.13005 2.91478 9.34137 3.58544 9.77479 3.44869C10.6593 3.16992 11.5697 3.04352 12.4944 3.03701C14.8727 3.02023 17.1101 3.97739 18.7974 5.66472C20.4831 7.35041 21.4151 9.58505 21.425 11.9609C21.3585 14.3625 20.5165 16.613 18.8002 18.3308C17.0763 20.0439 14.831 20.9035 12.4213 20.9611C10.0468 20.9503 7.81347 20.0184 6.12858 18.3335C4.4427 16.6476 3.51071 14.4127 3.50096 12.0366C3.59076 8.74404 5.24444 5.73357 8.1773 4.12966C8.57604 3.91163 8.23869 3.29473 7.84 3.51289C7.38516 3.76161 6.95577 4.04375 6.5537 4.35485C6.50566 4.04848 6.36422 3.75407 6.12867 3.51852C5.53693 2.92678 4.57411 2.92678 3.98237 3.51852C3.39064 4.11025 3.39064 5.07308 3.98237 5.66481C4.21797 5.90041 4.51234 6.04185 4.81871 6.08985C3.77522 7.43862 3.09664 9.05148 2.87618 10.7714C2.78503 10.7046 2.68511 10.6457 2.57633 10.5965C2.56949 10.5934 2.5626 10.5905 2.55562 10.5879C1.76123 10.288 0.930521 10.6318 0.580335 11.4052C0.577241 11.4121 0.574383 11.4189 0.571711 11.4259C0.271531 12.2205 0.615203 13.0514 1.38883 13.4017C1.86012 13.6129 2.46404 13.5295 2.87515 13.2287C3.09168 14.9385 3.75859 16.5451 4.818 17.9086C4.51187 17.9568 4.21769 18.0982 3.98228 18.3336C3.39054 18.9253 3.39054 19.8881 3.98228 20.4799C4.56652 21.0641 5.54434 21.0641 6.12858 20.4799C6.36399 20.2445 6.50543 19.9503 6.55351 19.6441C7.91733 20.7038 9.52424 21.3707 11.2344 21.5871C11.168 21.6779 11.1094 21.7772 11.0605 21.8853C11.0574 21.8922 11.0545 21.8991 11.0519 21.9061C10.7517 22.7006 11.0953 23.5315 11.869 23.8818C12.6107 24.2142 13.587 23.8165 13.8743 23.0521C14.0712 22.5305 13.9907 21.9932 13.6932 21.5867C15.4407 21.3637 17.0435 20.6719 18.3722 19.6423C18.42 19.9491 18.5616 20.2439 18.7974 20.4798C19.3816 21.064 20.3594 21.064 20.9437 20.4798C21.5354 19.888 21.5354 18.9252 20.9437 18.3335C20.7079 18.0976 20.413 17.9561 20.1062 17.9083C21.1361 16.5792 21.8281 14.9758 22.0508 13.2277C22.3159 13.4214 22.6186 13.5181 22.9481 13.5181C23.54 13.5181 24.0808 13.1787 24.3459 12.5927C24.349 12.5859 24.3518 12.579 24.3544 12.5719C24.6545 11.7773 24.3105 10.9464 23.5367 10.5964ZM19.2945 4.01549C19.4534 3.85666 19.662 3.77727 19.8706 3.77727C20.0793 3.77727 20.2879 3.85666 20.4467 4.01549C20.7643 4.33315 20.7643 4.84995 20.4467 5.16761C20.129 5.48527 19.6122 5.48522 19.2946 5.16761C18.9769 4.84999 18.9769 4.33315 19.2945 4.01549ZM11.7056 1.20472C11.9021 0.78306 12.3399 0.601874 12.777 0.761455C13.1989 0.957872 13.3801 1.3957 13.2205 1.83292C13.0307 2.24056 12.5711 2.4306 12.1488 2.27632C11.727 2.07981 11.546 1.64189 11.7056 1.20472ZM4.47944 5.1677C4.16182 4.85004 4.16182 4.33324 4.47944 4.01558C4.63827 3.85675 4.84687 3.77736 5.05552 3.77736C5.26417 3.77736 5.47277 3.85675 5.6316 4.01558C5.94514 4.32912 5.94861 4.83631 5.64323 5.15486C5.6346 5.16344 5.62598 5.17197 5.6174 5.18054C5.29876 5.48461 4.7926 5.48077 4.47944 5.1677ZM1.66862 12.7565C1.24692 12.5599 1.06582 12.122 1.22545 11.6849C1.42196 11.2632 1.85974 11.0821 2.29682 11.2416C2.70432 11.4314 2.89446 11.8909 2.74032 12.3132C2.54385 12.7351 2.10593 12.9164 1.66862 12.7565ZM5.63151 19.9828C5.3139 20.3004 4.79701 20.3004 4.47939 19.9828C4.16178 19.6651 4.16178 19.1483 4.47939 18.8306C4.79335 18.5167 5.3176 18.5167 5.63151 18.8306C5.94917 19.1483 5.94917 19.6651 5.63151 19.9828ZM13.2205 22.7933C13.024 23.2153 12.586 23.3965 12.1487 23.2367C11.727 23.04 11.5459 22.6022 11.7056 22.165C11.8954 21.7577 12.3548 21.5677 12.777 21.7218C13.1989 21.9182 13.3801 22.3561 13.2205 22.7933ZM20.4466 19.9827C20.129 20.3003 19.6121 20.3003 19.2945 19.9827C18.9768 19.6651 18.9768 19.1482 19.2945 18.8306C19.6084 18.5166 20.1327 18.5167 20.4466 18.8306C20.7642 19.1483 20.7642 19.6651 20.4466 19.9827ZM23.7007 12.3132C23.5042 12.7351 23.0662 12.9164 22.6289 12.7565C22.2215 12.5666 22.0316 12.1071 22.1858 11.6849C22.3823 11.2632 22.8201 11.0821 23.2572 11.2416C23.679 11.4381 23.8603 11.8759 23.7007 12.3132Z" fill="#201001"/>
<path d="M11.217 10.7532C10.8837 11.0865 10.7001 11.529 10.7002 11.9992C10.7002 12.4693 10.8837 12.9118 11.217 13.2452C11.5504 13.5785 11.9929 13.762 12.463 13.762H12.4631C12.9332 13.762 13.3758 13.5784 13.7091 13.2452C14.0424 12.9118 14.2259 12.4693 14.2259 11.9992C14.2259 11.529 14.0423 11.0865 13.7091 10.7531C13.3757 10.4198 12.9332 10.2363 12.4631 10.2363C12.463 10.2363 12.463 10.2363 12.463 10.2363C11.9929 10.2363 11.5504 10.4199 11.217 10.7532ZM12.4631 10.9393C12.7454 10.9393 13.0115 11.0497 13.212 11.2502C13.4125 11.4508 13.5229 11.7167 13.5229 11.9992C13.5229 12.2815 13.4125 12.5475 13.212 12.748C13.0115 12.9486 12.7455 13.059 12.4631 13.059H12.4631C12.1807 13.059 11.9147 12.9486 11.7142 12.7481C11.5137 12.5475 11.4032 12.2816 11.4032 11.9992C11.4032 11.7168 11.5137 11.4508 11.7142 11.2503C11.9147 11.0497 12.1806 10.9393 12.463 10.9393H12.4631Z" fill="#201001"/>
</g>
<defs>
<clipPath id="clip0_247_12727">
<rect width="24" height="24" fill="white" transform="translate(0.462891)"/>
</clipPath>
</defs>
</svg>
