<svg width="13" height="15" viewBox="0 0 13 15" fill="none" xmlns="https://www.w3.org/2000/svg">
<path d="M10.75 1.83333H10.0417V1.125C10.0417 0.93714 9.96704 0.756972 9.8342 0.624134C9.70136 0.491296 9.52119 0.416668 9.33333 0.416668C9.14547 0.416668 8.9653 0.491296 8.83247 0.624134C8.69963 0.756972 8.625 0.93714 8.625 1.125V1.83333H4.375V1.125C4.375 0.93714 4.30037 0.756972 4.16753 0.624134C4.0347 0.491296 3.85453 0.416668 3.66667 0.416668C3.4788 0.416668 3.29864 0.491296 3.1658 0.624134C3.03296 0.756972 2.95833 0.93714 2.95833 1.125V1.83333H2.25C1.68641 1.83333 1.14591 2.05722 0.747398 2.45573C0.348883 2.85425 0.125 3.39475 0.125 3.95833V12.4583C0.125 13.0219 0.348883 13.5624 0.747398 13.9609C1.14591 14.3595 1.68641 14.5833 2.25 14.5833H10.75C11.3136 14.5833 11.8541 14.3595 12.2526 13.9609C12.6511 13.5624 12.875 13.0219 12.875 12.4583V3.95833C12.875 3.39475 12.6511 2.85425 12.2526 2.45573C11.8541 2.05722 11.3136 1.83333 10.75 1.83333ZM3.66667 11.0417C3.52657 11.0417 3.38962 11.0001 3.27314 10.9223C3.15665 10.8445 3.06586 10.7338 3.01225 10.6044C2.95864 10.475 2.94461 10.3325 2.97194 10.1951C2.99927 10.0577 3.06674 9.93153 3.1658 9.83247C3.26486 9.73341 3.39107 9.66594 3.52848 9.63861C3.66588 9.61128 3.8083 9.62531 3.93773 9.67892C4.06717 9.73253 4.17779 9.82332 4.25562 9.93981C4.33346 10.0563 4.375 10.1932 4.375 10.3333C4.375 10.5212 4.30037 10.7014 4.16753 10.8342C4.0347 10.967 3.85453 11.0417 3.66667 11.0417ZM9.33333 11.0417H6.5C6.31214 11.0417 6.13197 10.967 5.99913 10.8342C5.86629 10.7014 5.79167 10.5212 5.79167 10.3333C5.79167 10.1455 5.86629 9.96531 5.99913 9.83247C6.13197 9.69963 6.31214 9.625 6.5 9.625H9.33333C9.52119 9.625 9.70136 9.69963 9.8342 9.83247C9.96704 9.96531 10.0417 10.1455 10.0417 10.3333C10.0417 10.5212 9.96704 10.7014 9.8342 10.8342C9.70136 10.967 9.52119 11.0417 9.33333 11.0417ZM11.4583 6.79167H1.54167V3.95833C1.54167 3.77047 1.61629 3.59031 1.74913 3.45747C1.88197 3.32463 2.06214 3.25 2.25 3.25H2.95833V3.95833C2.95833 4.1462 3.03296 4.32636 3.1658 4.4592C3.29864 4.59204 3.4788 4.66667 3.66667 4.66667C3.85453 4.66667 4.0347 4.59204 4.16753 4.4592C4.30037 4.32636 4.375 4.1462 4.375 3.95833V3.25H8.625V3.95833C8.625 4.1462 8.69963 4.32636 8.83247 4.4592C8.9653 4.59204 9.14547 4.66667 9.33333 4.66667C9.52119 4.66667 9.70136 4.59204 9.8342 4.4592C9.96704 4.32636 10.0417 4.1462 10.0417 3.95833V3.25H10.75C10.9379 3.25 11.118 3.32463 11.2509 3.45747C11.3837 3.59031 11.4583 3.77047 11.4583 3.95833V6.79167Z" fill="#224C4F"/>
</svg>
