<svg width="24" height="24" viewBox="0 0 24 24" fill="none" xmlns="https://www.w3.org/2000/svg">
<g clip-path="url(#clip0_1991_4762)">
<path d="M20.8739 4.56738C20.6278 4.27201 20.3196 4.03446 19.9713 3.87159C19.6231 3.70872 19.2432 3.62453 18.8587 3.625H4.71175L4.675 3.31787C4.59979 2.67949 4.29296 2.09089 3.81268 1.66367C3.3324 1.23645 2.71205 1.0003 2.06925 1L1.875 1C1.64294 1 1.42038 1.09219 1.25628 1.25628C1.09219 1.42038 1 1.64294 1 1.875C1 2.10706 1.09219 2.32962 1.25628 2.49372C1.42038 2.65781 1.64294 2.75 1.875 2.75H2.06925C2.28357 2.75003 2.49042 2.82871 2.65058 2.97113C2.81073 3.11354 2.91305 3.30978 2.93812 3.52262L4.14213 13.7601C4.26712 14.8248 4.77867 15.8066 5.57967 16.519C6.38067 17.2315 7.41537 17.625 8.48738 17.625H17.625C17.8571 17.625 18.0796 17.5328 18.2437 17.3687C18.4078 17.2046 18.5 16.9821 18.5 16.75C18.5 16.5179 18.4078 16.2954 18.2437 16.1313C18.0796 15.9672 17.8571 15.875 17.625 15.875H8.48738C7.9458 15.8735 7.41795 15.7045 6.97619 15.3912C6.53444 15.0779 6.2004 14.6356 6.01988 14.125H16.4499C17.4756 14.1251 18.4688 13.7647 19.2558 13.1069C20.0429 12.4491 20.5738 11.5356 20.7557 10.5261L21.4426 6.71637C21.5112 6.33838 21.4958 5.94993 21.3975 5.57856C21.2992 5.20718 21.1204 4.86197 20.8739 4.56738ZM19.725 6.40575L19.0373 10.2155C18.928 10.8219 18.6089 11.3705 18.1359 11.7653C17.6628 12.1601 17.066 12.3759 16.4499 12.375H5.74163L4.91825 5.375H18.8587C18.9873 5.37423 19.1144 5.40179 19.2311 5.45572C19.3478 5.50965 19.4511 5.58863 19.5338 5.68703C19.6165 5.78543 19.6765 5.90085 19.7096 6.02507C19.7426 6.14929 19.7479 6.27926 19.725 6.40575Z" fill="#222222"/>
<path d="M7.125 22.0005C8.09149 22.0005 8.87499 21.217 8.87499 20.2505C8.87499 19.284 8.09149 18.5005 7.125 18.5005C6.1585 18.5005 5.375 19.284 5.375 20.2505C5.375 21.217 6.1585 22.0005 7.125 22.0005Z" fill="#222222"/>
<path d="M15.875 22.0005C16.8415 22.0005 17.625 21.217 17.625 20.2505C17.625 19.284 16.8415 18.5005 15.875 18.5005C14.9085 18.5005 14.125 19.284 14.125 20.2505C14.125 21.217 14.9085 22.0005 15.875 22.0005Z" fill="#222222"/>
</g>
<defs>
<clipPath id="clip0_1991_4762">
<rect width="21" height="21" fill="white" transform="translate(1 1)"/>
</clipPath>
</defs>
</svg>
