<svg width="20" height="21" viewBox="0 0 20 21" fill="none" xmlns="http://www.w3.org/2000/svg">
<path d="M17 20.5H3C2.20435 20.5 1.44129 20.1839 0.87868 19.6213C0.316071 19.0587 0 18.2956 0 17.5V1.5C0 1.23478 0.105357 0.98043 0.292893 0.792893C0.48043 0.605357 0.734784 0.5 1 0.5H15C15.2652 0.5 15.5196 0.605357 15.7071 0.792893C15.8946 0.98043 16 1.23478 16 1.5V13.5H20V17.5C20 18.2956 19.6839 19.0587 19.1213 19.6213C18.5587 20.1839 17.7956 20.5 17 20.5ZM16 15.5V17.5C16 17.7652 16.1054 18.0196 16.2929 18.2071C16.4804 18.3946 16.7348 18.5 17 18.5C17.2652 18.5 17.5196 18.3946 17.7071 18.2071C17.8946 18.0196 18 17.7652 18 17.5V15.5H16ZM14 18.5V2.5H2V17.5C2 17.7652 2.10536 18.0196 2.29289 18.2071C2.48043 18.3946 2.73478 18.5 3 18.5H14ZM4 5.5H12V7.5H4V5.5ZM4 9.5H12V11.5H4V9.5ZM4 13.5H9V15.5H4V13.5Z" fill="black"/>
</svg>
