<svg width="16" height="19" viewBox="0 0 16 19" fill="none" xmlns="http://www.w3.org/2000/svg">
<path d="M1.33203 10.6667H7.04632M1.33203 12.5714H7.04632M4.18917 12.5714V17.3333M10.4987 1.5V4.83333C10.4987 5.29357 10.8718 5.66667 11.332 5.66667H14.6654M10.082 16.5C10.082 16.5 11.6901 16.5 13.0012 16.5C13.443 16.4999 13.8666 16.3242 14.1787 16.0116C14.4909 15.699 14.6659 15.2751 14.6654 14.8333V5.52394C14.6654 5.08175 14.4897 4.65767 14.177 4.345L11.8204 1.98833C11.5077 1.67566 11.0836 1.5 10.6414 1.5H3.83203C2.91156 1.5 2.16536 2.24619 2.16536 3.16667V7.33333" stroke="#17212A" stroke-width="1.5" stroke-linecap="round" stroke-linejoin="round"/>
</svg>
