<svg width="17" height="24" viewBox="0 0 17 24" fill="none" xmlns="http://www.w3.org/2000/svg">
<path d="M16.1116 6.46659H9.97834V0.351563C9.97834 0.157406 9.82093 0 9.62678 0H6.67665C6.4825 0 6.32509 0.157406 6.32509 0.351563V6.46659H4.15243C3.69789 6.46659 3.69789 7.16972 4.15243 7.16972H6.67665C6.87081 7.16972 7.02821 7.01231 7.02821 6.81816V0.703125H9.27521V6.81816C9.27521 7.01231 9.43262 7.16972 9.62678 7.16972H15.76V9.38166H9.62678C9.43262 9.38166 9.27521 9.53906 9.27521 9.73322V18.8125C9.27521 19.2671 9.97834 19.2671 9.97834 18.8125V10.0848H16.1116C16.3057 10.0848 16.4631 9.92738 16.4631 9.73322V6.81816C16.4631 6.624 16.3057 6.46659 16.1116 6.46659Z" fill="#201001"/>
<path d="M9.627 20.5705C9.43284 20.5705 9.27544 20.7279 9.27544 20.9221V23.2971H7.02844V9.73342C7.02844 9.53927 6.87103 9.38186 6.67688 9.38186H0.703125V7.16992H2.27841C2.73295 7.16992 2.73295 6.4668 2.27841 6.4668H0.351562C0.157406 6.4668 0 6.6242 0 6.81836V9.73342C0 9.92758 0.157406 10.085 0.351562 10.085H6.32527V23.6486C6.32527 23.8428 6.48267 24.0002 6.67683 24.0002H9.62695C9.82111 24.0002 9.97852 23.8428 9.97852 23.6486V20.9221C9.97856 20.7279 9.82116 20.5705 9.627 20.5705Z" fill="#201001"/>
</svg>
