<svg width="13" height="7" viewBox="0 0 13 7" fill="none" xmlns="http://www.w3.org/2000/svg">
<path d="M12.8348 1.08578L7.20981 6.71078C7.15756 6.76308 7.09553 6.80457 7.02724 6.83288C6.95895 6.86118 6.88576 6.87575 6.81184 6.87575C6.73791 6.87575 6.66472 6.86118 6.59643 6.83288C6.52815 6.80457 6.46611 6.76308 6.41387 6.71078L0.788867 1.08578C0.68332 0.980234 0.624023 0.83708 0.624023 0.687813C0.624023 0.538545 0.68332 0.395392 0.788867 0.289844C0.894415 0.184296 1.03757 0.125 1.18684 0.125C1.3361 0.125 1.47926 0.184296 1.5848 0.289844L6.81184 5.51758L12.0389 0.289844C12.0911 0.237582 12.1532 0.196125 12.2215 0.167841C12.2897 0.139557 12.3629 0.125 12.4368 0.125C12.5107 0.125 12.5839 0.139557 12.6522 0.167841C12.7205 0.196125 12.7825 0.237582 12.8348 0.289844C12.8871 0.342106 12.9285 0.40415 12.9568 0.472433C12.9851 0.540717 12.9997 0.613903 12.9997 0.687813C12.9997 0.761722 12.9851 0.834908 12.9568 0.903192C12.9285 0.971475 12.8871 1.03352 12.8348 1.08578Z" fill="#38949B"/>
</svg>
