<svg width="24" height="25" viewBox="0 0 24 25" fill="none" xmlns="https://www.w3.org/2000/svg">
<path d="M23.4353 12.1962C23.4025 12.1222 22.6084 10.3606 20.8431 8.59531C18.4909 6.24312 15.52 5 12.25 5C8.97999 5 6.00905 6.24312 3.65687 8.59531C1.89155 10.3606 1.09374 12.125 1.06468 12.1962C1.02203 12.2922 1 12.396 1 12.5009C1 12.6059 1.02203 12.7097 1.06468 12.8056C1.09749 12.8797 1.89155 14.6403 3.65687 16.4056C6.00905 18.7569 8.97999 20 12.25 20C15.52 20 18.4909 18.7569 20.8431 16.4056C22.6084 14.6403 23.4025 12.8797 23.4353 12.8056C23.4779 12.7097 23.5 12.6059 23.5 12.5009C23.5 12.396 23.4779 12.2922 23.4353 12.1962ZM12.25 18.5C9.36437 18.5 6.84343 17.4509 4.75655 15.3828C3.90028 14.5313 3.17179 13.5603 2.59374 12.5C3.17164 11.4396 3.90014 10.4686 4.75655 9.61719C6.84343 7.54906 9.36437 6.5 12.25 6.5C15.1356 6.5 17.6566 7.54906 19.7434 9.61719C20.6014 10.4684 21.3315 11.4394 21.9109 12.5C21.235 13.7619 18.2903 18.5 12.25 18.5ZM12.25 8C11.36 8 10.4899 8.26392 9.74993 8.75839C9.0099 9.25285 8.43313 9.95566 8.09253 10.7779C7.75194 11.6002 7.66282 12.505 7.83646 13.3779C8.01009 14.2508 8.43867 15.0526 9.06801 15.682C9.69735 16.3113 10.4992 16.7399 11.3721 16.9135C12.245 17.0872 13.1498 16.9981 13.9721 16.6575C14.7943 16.3169 15.4971 15.7401 15.9916 15.0001C16.4861 14.26 16.75 13.39 16.75 12.5C16.7488 11.3069 16.2742 10.163 15.4306 9.31939C14.587 8.47575 13.4431 8.00124 12.25 8ZM12.25 15.5C11.6566 15.5 11.0766 15.3241 10.5833 14.9944C10.0899 14.6648 9.70542 14.1962 9.47835 13.6481C9.25129 13.0999 9.19188 12.4967 9.30764 11.9147C9.42339 11.3328 9.70911 10.7982 10.1287 10.3787C10.5482 9.95912 11.0828 9.6734 11.6647 9.55764C12.2467 9.44189 12.8499 9.5013 13.398 9.72836C13.9462 9.95542 14.4148 10.3399 14.7444 10.8333C15.074 11.3266 15.25 11.9067 15.25 12.5C15.25 13.2956 14.9339 14.0587 14.3713 14.6213C13.8087 15.1839 13.0456 15.5 12.25 15.5Z" fill="#939393"/>
</svg>
