<svg width="22" height="22" viewBox="0 0 22 22" fill="none" xmlns="http://www.w3.org/2000/svg">
<path d="M14.1577 3.06934C14.0724 2.53586 14.7422 2.19886 15.1206 2.57324L16.478 3.91602L18.187 3.03027C18.6703 2.7794 19.1956 3.31469 18.9556 3.79004L18.0161 5.64941C17.9608 5.75878 17.8731 5.82483 17.7739 5.84961C17.6771 5.87365 17.5763 5.85672 17.4927 5.81445C17.409 5.77217 17.3354 5.70158 17.2974 5.60938C17.2583 5.51472 17.2596 5.40454 17.3149 5.29492L17.9487 4.03809L16.7007 4.68652C16.481 4.80062 16.2145 4.76093 16.0386 4.58691L15.0386 3.59766L15.2632 4.99316C15.302 5.23601 15.1807 5.47536 14.9624 5.58887L13.7065 6.24023L15.0952 6.44824C15.3406 6.48492 15.5324 6.67398 15.5718 6.91895L15.7935 8.30469L16.4312 7.04297C16.5422 6.82324 16.7811 6.69902 17.0249 6.73535L18.4429 6.94727L18.2827 6.78125C18.1972 6.693 18.1632 6.58737 18.1724 6.48535C18.1814 6.38618 18.2311 6.29658 18.2983 6.23145C18.3656 6.1664 18.4568 6.12006 18.5562 6.11426C18.6583 6.1084 18.7617 6.14622 18.8472 6.23438L19.4487 6.85449C19.8302 7.23795 19.4813 7.8977 18.9595 7.81934L17.062 7.53516L16.1938 9.25586C15.9421 9.75417 15.2081 9.61278 15.1245 9.0918L14.8208 7.20117L12.9272 6.91895C12.3871 6.83808 12.2819 6.09546 12.7515 5.85156L14.4614 4.96387L14.1577 3.06934Z" fill="#201001" stroke="#201001" stroke-width="0.2"/>
<path d="M9.85547 0.905243C10.1584 0.865785 10.4319 1.0547 10.5029 1.35153C10.574 1.6495 10.4148 1.94261 10.126 2.04489C7.02316 3.14266 4.93004 6.08718 4.91797 9.37204C4.91045 11.4359 5.70905 13.375 7.16699 14.833C8.61806 16.284 10.5457 17.082 12.5986 17.082C12.6085 17.082 12.6183 17.082 12.6279 17.082C15.9129 17.0699 18.8573 14.9768 19.9551 11.874C20.0574 11.5852 20.3505 11.426 20.6484 11.497C20.9454 11.5681 21.134 11.8417 21.0947 12.1445C20.7804 14.5554 19.5902 16.7996 17.7441 18.4638C15.8689 20.1543 13.4759 21.0906 11.0059 21.0996C10.9933 21.0996 10.9802 21.0996 10.9678 21.0996C8.27322 21.0997 5.74461 20.0552 3.84473 18.1552C1.93596 16.2465 0.890528 13.7028 0.900391 10.9941C0.909062 8.6205 1.78266 6.29958 3.35938 4.45798C3.43921 4.36475 3.54026 4.32075 3.64258 4.32028C3.74232 4.31995 3.83603 4.36089 3.90723 4.42184C3.97834 4.48273 4.03274 4.56851 4.04785 4.66696C4.06329 4.76827 4.036 4.87535 3.95605 4.96872C2.49964 6.66974 1.69351 8.81089 1.68555 10.997C1.67646 13.4953 2.64071 15.8399 4.40039 17.5996C6.15178 19.351 8.48273 20.3144 10.9678 20.3144C10.9794 20.3144 10.991 20.3145 11.0029 20.3144C13.2781 20.3061 15.4853 19.4415 17.2178 17.8799C18.4755 16.746 19.4014 15.3223 19.9189 13.7627C18.3837 16.2622 15.6375 17.857 12.6309 17.8681C12.6202 17.8682 12.6091 17.8681 12.5986 17.8681C10.3361 17.8682 8.21075 16.988 6.61133 15.3886C5.00441 13.7818 4.12354 11.6435 4.13184 9.36911C4.14292 6.36107 5.73775 3.61192 8.23926 2.07712C7.06743 2.46536 5.9703 3.08761 5.00586 3.91696C4.91282 3.99684 4.80621 4.02484 4.70508 4.00974C4.60648 3.99492 4.5201 3.94013 4.45898 3.86911C4.39787 3.79804 4.35731 3.70421 4.35742 3.60446C4.35765 3.50211 4.40104 3.40131 4.49414 3.32126C6.03305 1.99785 7.88688 1.16181 9.85547 0.905243Z" fill="#201001" stroke="#201001" stroke-width="0.2"/>
</svg>
