<svg width="10" height="17" viewBox="0 0 10 17" fill="none" xmlns="https://www.w3.org/2000/svg">
<path d="M1.78104 0.219791L9.28104 7.71979C9.35077 7.78945 9.40609 7.87216 9.44384 7.96321C9.48158 8.05426 9.50101 8.15186 9.50101 8.25042C9.50101 8.34898 9.48158 8.44657 9.44384 8.53762C9.40609 8.62867 9.35077 8.71139 9.28104 8.78104L1.78104 16.281C1.64031 16.4218 1.44944 16.5008 1.25042 16.5008C1.05139 16.5008 0.860522 16.4218 0.719792 16.281C0.579061 16.1403 0.5 15.9494 0.5 15.7504C0.5 15.5514 0.579061 15.3605 0.719792 15.2198L7.6901 8.25042L0.719791 1.28104C0.650108 1.21136 0.594833 1.12863 0.557121 1.03759C0.519409 0.946546 0.499999 0.848964 0.499999 0.750418C0.499999 0.651872 0.519409 0.55429 0.557121 0.463245C0.594833 0.3722 0.650108 0.289474 0.719791 0.219791C0.789474 0.15011 0.872199 0.0948353 0.963244 0.0571232C1.05429 0.0194111 1.15187 -2.84942e-08 1.25042 -3.28018e-08C1.34896 -3.71094e-08 1.44654 0.019411 1.53759 0.0571231C1.62863 0.0948352 1.71136 0.15011 1.78104 0.219791Z" fill="#222222"/>
</svg>
