<svg width="108" height="76" viewBox="0 0 108 76" fill="none" xmlns="http://www.w3.org/2000/svg">
<rect width="108" height="76" fill="white"/>
<path d="M31.479 40.9442L38.6936 53.456L34.9858 53.5L28.1286 41.5934H27.9499L19.4621 41.7034L19.6296 53.412L16.4132 53.456L16.2234 38.5892L27.9164 38.4352C31.8922 38.3802 34.3492 35.409 34.3046 31.9757C34.2599 28.4983 31.7247 25.6262 27.7489 25.6813L16.0447 25.8243L16 22.6551L27.693 22.501C33.5898 22.424 37.5768 26.6826 37.6438 31.9207C37.7108 35.9042 35.2427 39.5026 31.479 40.9442ZM39.0622 22.6661L52.4639 25.8243V50.4848L40.0785 53.456H61.4431V50.4848H57.2104V25.8243H61.4431V22.6661H39.0622ZM48.2755 37.5658C48.1862 38.1381 48.041 38.6993 47.8511 39.2385L48.466 40.7852C48.7564 40.246 49.8618 38.083 50.0293 37.4888L48.2755 37.5658ZM82.0371 22.512L70.3441 22.6661L70.3776 25.8243L82.0706 25.6703C86.0465 25.6152 88.5816 28.4873 88.6263 31.9647C88.671 35.398 86.214 38.3802 82.2382 38.4242L70.5563 38.5892L70.7126 50.3308H68.7359V53.5H78.6532V50.3308H73.9291L73.8174 41.7144L76.2855 41.6814C78.1395 41.6594 79.9934 41.6264 81.8473 41.6044C82.0595 41.6044 82.2717 41.5934 82.4839 41.5824C85.1642 41.4283 87.677 40.449 89.5198 38.4242C91.1392 36.6415 92.0326 34.3196 91.9991 31.9207C91.9097 26.6936 87.9339 22.435 82.0371 22.512Z" fill="#224C4F"/>
</svg>
