<svg width="61" height="26" viewBox="0 0 61 26" fill="none" xmlns="http://www.w3.org/2000/svg">
<path d="M12.424 15.4693L18.2146 25.9631L15.2386 26L9.73478 16.0138H9.59136L2.77881 16.1061L2.91326 25.9262L0.331664 25.9631L0.179278 13.4942L9.56447 13.365C12.7556 13.3188 14.7277 10.8269 14.6918 7.94735C14.656 5.03087 12.6212 2.622 9.43001 2.66815L0.035855 2.78813L0 0.130073L9.38519 0.000862845C14.1181 -0.0637427 17.3182 3.50802 17.372 7.9012C17.4258 11.2422 15.4448 14.2602 12.424 15.4693ZM18.5104 0.139303L29.2671 2.78813V23.4712L19.3261 25.9631H36.4741V23.4712H33.0768V2.78813H36.4741V0.139303H18.5104ZM25.9054 12.6359C25.8336 13.1158 25.7171 13.5865 25.5647 14.0387L26.0583 15.3359C26.2913 14.8837 27.1785 13.0697 27.313 12.5713L25.9054 12.6359ZM53.0035 0.0100914L43.6183 0.139303L43.6452 2.78813L53.0304 2.65892C56.2215 2.61277 58.2563 5.02164 58.2922 7.93812C58.328 10.8177 56.356 13.3188 53.1648 13.3558L43.7886 13.4942L43.9141 23.3419H42.3275V26H50.2874V23.3419H46.4957L46.4061 16.1153L48.3871 16.0877C49.8751 16.0692 51.3631 16.0415 52.8511 16.0231C53.0214 16.0231 53.1917 16.0138 53.362 16.0046C55.5134 15.8754 57.5303 15.054 59.0093 13.3558C60.3091 11.8606 61.0262 9.91321 60.9993 7.9012C60.9276 3.51725 57.7364 -0.0545142 53.0035 0.0100914Z" fill="white"/>
</svg>
