<svg width="23" height="23" viewBox="0 0 23 23" fill="none" xmlns="http://www.w3.org/2000/svg">
<path fill-rule="evenodd" clip-rule="evenodd" d="M11.25 0C5.03629 0 0 5.03629 0 11.25C0 17.4637 5.03629 22.5 11.25 22.5C17.4637 22.5 22.5 17.4637 22.5 11.25C22.5 5.03629 17.4637 0 11.25 0ZM16.4597 8.31612C16.8511 8.7354 16.8284 9.39253 16.4091 9.78385L10.8459 14.9762C10.4469 15.3485 9.82779 15.3485 9.42881 14.9762L6.0909 11.8608C5.67162 11.4694 5.64896 10.8123 6.04028 10.393C6.43161 9.97376 7.08874 9.9511 7.50802 10.3424L10.1374 12.7965L14.992 8.26551C15.4113 7.87418 16.0684 7.89684 16.4597 8.31612Z" fill="#298B27"/>
</svg>
