<svg width="17" height="16" viewBox="0 0 17 16" fill="none" xmlns="http://www.w3.org/2000/svg">
<path d="M16.3501 11.9289V15.072C16.3502 15.297 16.2649 15.5138 16.1115 15.6784C15.9581 15.843 15.7479 15.9434 15.5234 15.9591C15.135 15.9858 14.8177 16 14.5723 16C6.7172 16 0.350098 9.6329 0.350098 1.77778C0.350098 1.53244 0.363428 1.21511 0.390988 0.82667C0.406738 0.60217 0.507058 0.39201 0.671698 0.23859C0.836348 0.08516 1.05305 -9.97785e-05 1.2781 2.2147e-07H4.42121C4.53147 -0.000109779 4.63783 0.04076 4.71964 0.11468C4.80144 0.18861 4.85285 0.2903 4.86388 0.4C4.88432 0.60444 4.90299 0.76711 4.92077 0.89067C5.09742 2.12349 5.45944 3.32252 5.99454 4.44711C6.07899 4.62489 6.02388 4.83733 5.86388 4.95111L3.94566 6.3218C5.1185 9.0546 7.2964 11.2325 10.0292 12.4053L11.3981 10.4907C11.4541 10.4124 11.5357 10.3563 11.6288 10.3321C11.7218 10.3079 11.8205 10.3172 11.9074 10.3582C13.0319 10.8923 14.2306 11.2534 15.463 11.4293C15.5865 11.4471 15.7492 11.4667 15.9519 11.4862C16.0614 11.4975 16.1629 11.549 16.2366 11.6307C16.3104 11.7125 16.3502 11.8188 16.3501 11.9289Z" fill="#E9B949"/>
</svg>
