<svg width="16" height="21" viewBox="0 0 16 21" fill="none" xmlns="http://www.w3.org/2000/svg">
<path d="M7.0301 20C4.89394 17.4922 0.142822 11.4141 0.142822 8C0.142822 3.85781 3.66053 0.5 7.99997 0.5C12.3378 0.5 15.8571 3.85781 15.8571 8C15.8571 11.4141 11.0692 17.4922 8.96983 20C8.46648 20.5977 7.53345 20.5977 7.0301 20V20ZM7.99997 10.5C9.44453 10.5 10.619 9.37891 10.619 8C10.619 6.62109 9.44453 5.5 7.99997 5.5C6.5554 5.5 5.38092 6.62109 5.38092 8C5.38092 9.37891 6.5554 10.5 7.99997 10.5Z" fill="#E9B949"/>
</svg>
