<svg width="19" height="18" viewBox="0 0 19 18" fill="none" xmlns="https://www.w3.org/2000/svg">
<path d="M18.625 9C18.625 9.19891 18.546 9.38968 18.4053 9.53033C18.2647 9.67098 18.0739 9.75 17.875 9.75H10.375V17.25C10.375 17.4489 10.296 17.6397 10.1553 17.7803C10.0147 17.921 9.82391 18 9.625 18C9.42609 18 9.23532 17.921 9.09467 17.7803C8.95402 17.6397 8.875 17.4489 8.875 17.25V9.75H1.375C1.17609 9.75 0.985322 9.67098 0.84467 9.53033C0.704018 9.38968 0.625 9.19891 0.625 9C0.625 8.80109 0.704018 8.61032 0.84467 8.46967C0.985322 8.32902 1.17609 8.25 1.375 8.25H8.875V0.75C8.875 0.551088 8.95402 0.360322 9.09467 0.21967C9.23532 0.0790178 9.42609 0 9.625 0C9.82391 0 10.0147 0.0790178 10.1553 0.21967C10.296 0.360322 10.375 0.551088 10.375 0.75V8.25H17.875C18.0739 8.25 18.2647 8.32902 18.4053 8.46967C18.546 8.61032 18.625 8.80109 18.625 9Z" fill="white"/>
</svg>
