<svg width="53" height="53" viewBox="0 0 53 53" fill="none" xmlns="http://www.w3.org/2000/svg">
<path d="M48.5833 37.5417C48.5833 43.6389 43.6389 48.5833 37.5417 48.5833C31.4445 48.5833 26.5 43.6389 26.5 37.5417C26.5 31.4445 31.4445 26.5 37.5417 26.5C43.6389 26.5 48.5833 31.4445 48.5833 37.5417" stroke="#5C6771" stroke-opacity="0.9" stroke-width="2.5" stroke-linecap="round" stroke-linejoin="round"/>
<path d="M37.5417 43.3941C37.482 43.3941 37.4313 43.4449 37.4313 43.5046C37.4313 43.5642 37.482 43.615 37.5417 43.615C37.6013 43.615 37.6521 43.5642 37.6521 43.5046C37.6521 43.4449 37.6013 43.3941 37.5417 43.3941V43.3941" stroke="#2276E5" stroke-width="2.5" stroke-linecap="round" stroke-linejoin="round"/>
<path d="M37.5416 38.9228C39.4474 38.9228 40.9933 37.3769 40.9933 35.4712C40.9933 33.5654 39.4496 32.0195 37.5416 32.0195C35.6822 32.0195 34.1783 33.4903 34.1055 35.332" stroke="#2276E5" stroke-width="2.5" stroke-linecap="round" stroke-linejoin="round"/>
<path d="M19.875 33.1257H13.25" stroke="#5C6771" stroke-opacity="0.9" stroke-width="2.5" stroke-linecap="round" stroke-linejoin="round"/>
<path d="M24.2917 24.2917H13.25" stroke="#5C6771" stroke-opacity="0.9" stroke-width="2.5" stroke-linecap="round" stroke-linejoin="round"/>
<path d="M35.3333 15.4577H13.25" stroke="#5C6771" stroke-opacity="0.9" stroke-width="2.5" stroke-linecap="round" stroke-linejoin="round"/>
<path d="M28.7083 44.1667H11.3177C8.72512 44.1667 6.625 42.0665 6.625 39.474V11.3177C6.625 8.72512 8.72512 6.625 11.3177 6.625H39.474C42.0665 6.625 44.1667 8.72512 44.1667 11.3177V28.7083" stroke="#5C6771" stroke-opacity="0.9" stroke-width="2.5" stroke-linecap="round" stroke-linejoin="round"/>
</svg>
