<svg width="22" height="18" viewBox="0 0 22 18" fill="none" xmlns="http://www.w3.org/2000/svg">
    <line x1="0.5" y1="1" x2="0.499999" y2="17" stroke="#939393"/>
    <path d="M18.8348 6.58578L13.2098 12.2108C13.1576 12.2631 13.0955 12.3046 13.0272 12.3329C12.959 12.3612 12.8858 12.3758 12.8118 12.3758C12.7379 12.3758 12.6647 12.3612 12.5964 12.3329C12.5281 12.3046 12.4661 12.2631 12.4139 12.2108L6.78887 6.58578C6.68332 6.48023 6.62402 6.33708 6.62402 6.18781C6.62402 6.03855 6.68332 5.89539 6.78887 5.78984C6.89442 5.6843 7.03757 5.625 7.18684 5.625C7.3361 5.625 7.47926 5.6843 7.5848 5.78984L12.8118 11.0176L18.0389 5.78984C18.0911 5.73758 18.1532 5.69613 18.2215 5.66784C18.2897 5.63956 18.3629 5.625 18.4368 5.625C18.5107 5.625 18.5839 5.63956 18.6522 5.66784C18.7205 5.69613 18.7825 5.73758 18.8348 5.78984C18.8871 5.84211 18.9285 5.90415 18.9568 5.97243C18.9851 6.04072 18.9997 6.1139 18.9997 6.18781C18.9997 6.26172 18.9851 6.33491 18.9568 6.40319C18.9285 6.47148 18.8871 6.53352 18.8348 6.58578Z" fill="#222222"/>
</svg>
