<svg width="32" height="32" viewBox="0 0 32 32" fill="none" xmlns="http://www.w3.org/2000/svg">
<path d="M16.0177 29.4422C23.4806 29.4422 29.5305 23.3489 29.5305 15.8325C29.5305 8.31605 23.4806 2.22278 16.0177 2.22278C8.55479 2.22278 2.50488 8.31605 2.50488 15.8325C2.50488 23.3489 8.55479 29.4422 16.0177 29.4422Z" fill="#38949B"/>
<path d="M15.2855 21.9098C14.9378 21.9066 14.6049 21.7675 14.3572 21.5217L9.7683 16.8998C9.52442 16.6507 9.3877 16.3148 9.3877 15.9649C9.3877 15.615 9.52442 15.2791 9.7683 15.0299C9.88967 14.9062 10.0342 14.808 10.1936 14.7409C10.3529 14.6739 10.5239 14.6393 10.6966 14.6393C10.8693 14.6393 11.0403 14.6739 11.1996 14.7409C11.359 14.808 11.5035 14.9062 11.6249 15.0299L15.2855 18.7168L22.2477 11.7047C22.4968 11.471 22.8261 11.3438 23.1664 11.3498C23.5068 11.3559 23.8315 11.4947 24.0721 11.7371C24.3128 11.9795 24.4507 12.3066 24.4567 12.6493C24.4627 12.9921 24.3364 13.3238 24.1043 13.5746L16.2226 21.5129C16.1007 21.6388 15.955 21.7388 15.794 21.807C15.633 21.8752 15.4601 21.9101 15.2855 21.9098Z" fill="white"/>
<path d="M16.0175 32C15.09 32.0007 14.1641 31.921 13.2501 31.7618L13.399 30.8798C15.1379 31.1788 16.9146 31.1788 18.6535 30.8798L18.8024 31.7618C17.8824 31.9201 16.9508 31.9998 16.0175 32ZM8.02189 29.8478C6.40361 28.9104 4.9603 27.6955 3.75699 26.258L4.43131 25.6847C5.56591 27.0483 6.92943 28.2007 8.45977 29.0893L8.02189 29.8478ZM24.0306 29.8478L23.5927 29.0893C25.1231 28.2007 26.4866 27.0483 27.6212 25.6847L28.2868 26.2492C27.0844 27.6722 25.6439 28.8722 24.0306 29.7949V29.8478ZM0.963346 21.4157C0.323518 19.6462 -0.00255563 17.7773 1.50823e-05 15.8942H0.875766C0.862322 17.67 1.15874 19.4344 1.75152 21.1069L0.963346 21.4157ZM31.0716 21.4157L30.2484 21.1158C30.8412 19.4432 31.1376 17.6788 31.1242 15.903H31.7197H31.9999C32.0046 17.7574 31.6905 19.5986 31.0716 21.3451V21.4157ZM1.76903 10.7166L0.945827 10.4168C1.58212 8.64582 2.52172 7.00094 3.72195 5.55678L4.38753 6.12128C3.26317 7.4669 2.37738 8.99755 1.76903 10.6461V10.7166ZM30.2309 10.6284C29.6271 8.96251 28.7378 7.41613 27.6037 6.05953L28.278 5.48622C29.4827 6.92198 30.4309 8.55741 31.0804 10.3197L30.2309 10.6284ZM8.40723 2.69018L7.96935 1.93164C9.59187 0.976043 11.3716 0.32177 13.2239 0L13.3727 0.882029C11.6285 1.17072 9.94799 1.76476 8.40723 2.63726V2.69018ZM23.5402 2.69018C22.0103 1.81264 20.338 1.21537 18.601 0.926126L18.7498 0.0440974C20.5981 0.361436 22.3766 1.00331 24.0043 1.94046L23.5402 2.69018Z" fill="#38949B"/>
</svg>
