<svg width="24" height="25" viewBox="0 0 24 25" fill="none" xmlns="http://www.w3.org/2000/svg">
<g clip-path="url(#clip0_141_607)">
<path fill-rule="evenodd" clip-rule="evenodd" d="M24 12.1602C24 18.7876 18.6274 24.1602 12 24.1602C5.37258 24.1602 0 18.7876 0 12.1602C0 5.53274 5.37258 0.160156 12 0.160156C18.6274 0.160156 24 5.53274 24 12.1602ZM12.43 9.01908C11.2628 9.50455 8.93014 10.5094 5.43189 12.0335C4.86383 12.2594 4.56626 12.4804 4.53917 12.6965C4.49339 13.0617 4.95071 13.2055 5.57347 13.4013C5.65818 13.4279 5.74595 13.4555 5.83594 13.4848C6.44864 13.6839 7.27283 13.9169 7.70129 13.9262C8.08994 13.9346 8.52373 13.7744 9.00264 13.4455C12.2712 11.2392 13.9584 10.124 14.0643 10.0999C14.139 10.083 14.2426 10.0616 14.3128 10.124C14.3829 10.1864 14.376 10.3045 14.3686 10.3362C14.3233 10.5293 12.5281 12.1982 11.5991 13.0619C11.3095 13.3312 11.1041 13.5222 11.0621 13.5658C10.968 13.6635 10.8721 13.7559 10.78 13.8448C10.2108 14.3935 9.78391 14.805 10.8036 15.4769C11.2936 15.7999 11.6858 16.0669 12.077 16.3333C12.5042 16.6242 12.9303 16.9144 13.4816 17.2758C13.6221 17.3679 13.7562 17.4635 13.8869 17.5567C14.3841 17.9111 14.8307 18.2296 15.3826 18.1788C15.7032 18.1493 16.0345 17.8478 16.2027 16.9485C16.6002 14.8233 17.3816 10.2186 17.5622 8.32113C17.578 8.15489 17.5581 7.94213 17.5422 7.84873C17.5262 7.75533 17.4928 7.62226 17.3714 7.52376C17.2276 7.40709 17.0056 7.38249 16.9064 7.38424C16.455 7.39219 15.7626 7.63297 12.43 9.01908Z" fill="#E8B468"/>
</g>
<defs>
<clipPath id="clip0_141_607">
<rect width="24" height="24" fill="white" transform="translate(0 0.160156)"/>
</clipPath>
</defs>
</svg>
