<svg width="16" height="18" viewBox="0 0 16 18" fill="none" xmlns="http://www.w3.org/2000/svg">
<path d="M13 2.33317H12.1667V1.49984C12.1667 1.27882 12.0789 1.06686 11.9226 0.910582C11.7663 0.754301 11.5543 0.666504 11.3333 0.666504C11.1123 0.666504 10.9004 0.754301 10.7441 0.910582C10.5878 1.06686 10.5 1.27882 10.5 1.49984V2.33317H5.5V1.49984C5.5 1.27882 5.4122 1.06686 5.25592 0.910582C5.09964 0.754301 4.88768 0.666504 4.66667 0.666504C4.44565 0.666504 4.23369 0.754301 4.07741 0.910582C3.92113 1.06686 3.83333 1.27882 3.83333 1.49984V2.33317H3C2.33696 2.33317 1.70107 2.59656 1.23223 3.0654C0.763392 3.53424 0.5 4.17013 0.5 4.83317V14.8332C0.5 15.4962 0.763392 16.1321 1.23223 16.6009C1.70107 17.0698 2.33696 17.3332 3 17.3332H13C13.663 17.3332 14.2989 17.0698 14.7678 16.6009C15.2366 16.1321 15.5 15.4962 15.5 14.8332V4.83317C15.5 4.17013 15.2366 3.53424 14.7678 3.0654C14.2989 2.59656 13.663 2.33317 13 2.33317V2.33317ZM4.66667 13.1665C4.50185 13.1665 4.34073 13.1176 4.20369 13.0261C4.06665 12.9345 3.95984 12.8043 3.89677 12.6521C3.83369 12.4998 3.81719 12.3322 3.84935 12.1706C3.8815 12.0089 3.96087 11.8605 4.07741 11.7439C4.19395 11.6274 4.34244 11.548 4.50409 11.5158C4.66574 11.4837 4.8333 11.5002 4.98557 11.5633C5.13784 11.6263 5.26799 11.7332 5.35956 11.8702C5.45113 12.0072 5.5 12.1684 5.5 12.3332C5.5 12.5542 5.4122 12.7661 5.25592 12.9224C5.09964 13.0787 4.88768 13.1665 4.66667 13.1665V13.1665ZM11.3333 13.1665H8C7.77899 13.1665 7.56702 13.0787 7.41074 12.9224C7.25446 12.7661 7.16667 12.5542 7.16667 12.3332C7.16667 12.1122 7.25446 11.9002 7.41074 11.7439C7.56702 11.5876 7.77899 11.4998 8 11.4998H11.3333C11.5543 11.4998 11.7663 11.5876 11.9226 11.7439C12.0789 11.9002 12.1667 12.1122 12.1667 12.3332C12.1667 12.5542 12.0789 12.7661 11.9226 12.9224C11.7663 13.0787 11.5543 13.1665 11.3333 13.1665ZM13.8333 8.1665H2.16667V4.83317C2.16667 4.61216 2.25446 4.4002 2.41074 4.24392C2.56702 4.08763 2.77899 3.99984 3 3.99984H3.83333V4.83317C3.83333 5.05418 3.92113 5.26615 4.07741 5.42243C4.23369 5.57871 4.44565 5.6665 4.66667 5.6665C4.88768 5.6665 5.09964 5.57871 5.25592 5.42243C5.4122 5.26615 5.5 5.05418 5.5 4.83317V3.99984H10.5V4.83317C10.5 5.05418 10.5878 5.26615 10.7441 5.42243C10.9004 5.57871 11.1123 5.6665 11.3333 5.6665C11.5543 5.6665 11.7663 5.57871 11.9226 5.42243C12.0789 5.26615 12.1667 5.05418 12.1667 4.83317V3.99984H13C13.221 3.99984 13.433 4.08763 13.5893 4.24392C13.7455 4.4002 13.8333 4.61216 13.8333 4.83317V8.1665Z" fill="#E9B949"/>
</svg>
