<svg width="20" height="20" viewBox="0 0 20 20" fill="none" xmlns="http://www.w3.org/2000/svg">
<path d="M17.5 6.5H14C12.8954 6.5 12 5.60457 12 4.5V1M17.5 10V6.50931C17.5 5.71366 17.1839 4.95061 16.6213 4.388L14.112 1.87868C13.5494 1.31607 12.7863 1 11.9907 1H4.5C2.84315 1 1.5 2.34315 1.5 4V16C1.5 17.6569 2.84315 19 4.5 19H9.5M17.8874 15.3939L16.1536 16.1226C15.9154 16.2227 15.7258 16.4122 15.6256 16.6504L14.8947 18.3877C14.7307 18.7775 14.3393 19.022 13.9171 18.9983C13.4949 18.9747 13.1332 18.688 13.0137 18.2824L11.542 13.2837C11.4387 12.9326 11.5354 12.5531 11.7942 12.2943C12.0529 12.0355 12.4324 11.9387 12.7835 12.042L17.7822 13.5128C18.1879 13.6322 18.4747 13.994 18.4983 14.4162C18.5219 14.8385 18.2773 15.23 17.8874 15.3939Z" stroke="#17212A" stroke-width="1.5" stroke-linecap="round" stroke-linejoin="round"/>
</svg>
