<svg width="20" height="19" viewBox="0 0 20 19" fill="none" xmlns="http://www.w3.org/2000/svg">
<path fill-rule="evenodd" clip-rule="evenodd" d="M7.52299 1.83965C8.61817 -0.0780176 11.3822 -0.0781044 12.4774 1.83965L19.3702 13.9028C20.4566 15.8046 19.0836 18.1719 16.893 18.1719H3.10746C0.916247 18.1719 -0.457499 15.8047 0.630401 13.9024L7.52299 1.83965ZM10.0006 6.02869C10.4976 6.02869 10.9006 6.43163 10.9006 6.92869V11.1513C10.9006 11.6484 10.4976 12.0513 10.0006 12.0513C9.50353 12.0513 9.10059 11.6484 9.10059 11.1513V6.92869C9.10059 6.43163 9.50353 6.02869 10.0006 6.02869ZM10.0008 13.2513C10.4921 13.2513 10.9008 13.6615 10.9008 14.1523C10.9008 14.6494 10.4979 15.0523 10.0008 15.0523C9.50375 15.0523 9.1008 14.6494 9.1008 14.1523C9.1008 13.6615 9.50951 13.2513 10.0008 13.2513Z" fill="#F79009"/>
</svg>
