<svg width="20" height="20" viewBox="0 0 20 20" fill="none" xmlns="http://www.w3.org/2000/svg">
<path fill-rule="evenodd" clip-rule="evenodd" d="M10 0.25C4.61479 0.25 0.25 4.61479 0.25 10C0.25 15.3852 4.61479 19.75 10 19.75C15.3852 19.75 19.75 15.3852 19.75 10C19.75 4.61479 15.3852 0.25 10 0.25ZM6.36358 6.36358C6.71505 6.01211 7.2849 6.01211 7.63637 6.36358L9.99998 8.72718L12.3636 6.36358C12.7151 6.01211 13.2849 6.01211 13.6364 6.36358C13.9878 6.71505 13.9878 7.2849 13.6364 7.63637L11.2728 9.99998L13.6364 12.3636C13.9878 12.7151 13.9878 13.2849 13.6364 13.6364C13.2849 13.9878 12.7151 13.9878 12.3636 13.6364L9.99998 11.2728L7.63637 13.6364C7.2849 13.9878 6.71505 13.9878 6.36358 13.6364C6.01211 13.2849 6.01211 12.7151 6.36358 12.3636L8.72718 9.99998L6.36358 7.63637C6.01211 7.2849 6.01211 6.71505 6.36358 6.36358Z" fill="#C5C5C7"/>
</svg>
